<svg xmlns="http://www.w3.org/2000/svg" viewBox="0 0 333333 333333" shape-rendering="geometricPrecision" text-rendering="geometricPrecision" image-rendering="optimizeQuality" fill-rule="evenodd" clip-rule="evenodd"><path d="M1316 122445h330701c724 0 1317 593 1317 1317v85809c0 724-593 1317-1317 1317H1316c-724 0-1316-593-1316-1317v-85809c0-724 592-1317 1316-1317zm137101 37774h-7893v-2417c0-1130-104-1853-303-2163-200-310-530-461-999-461-509 0-895 207-1157 627-261 413-393 1040-393 1887 0 1088 152 1908 448 2459 289 544 1088 1212 2404 1997 3767 2252 6143 4105 7121 5544 985 1439 1474 3761 1474 6956 0 2328-275 4043-819 5152-544 1102-1591 2025-3154 2769-1557 751-3368 1122-5441 1122-2273 0-4208-434-5820-1294-1605-861-2652-1956-3154-3285-496-1336-744-3230-744-5675v-2142h7893v3974c0 1226 110 2011 331 2362 220 351 613 524 1178 524s985-220 1260-668c276-441 413-1102 413-1970 0-1922-262-3182-785-3767-544-593-1867-1584-3974-2975-2107-1398-3498-2417-4187-3051-682-633-1254-1508-1701-2624-448-1116-675-2541-675-4277 0-2500 317-4332 957-5489s1667-2059 3092-2714c1426-654 3141-978 5159-978 2204 0 4077 358 5633 1068 1550 716 2576 1611 3079 2700 503 1081 757 2920 757 5517v1295zm22693-9917v21853c0 2480-83 4222-241 5220-165 1006-640 2039-1432 3092-792 1061-1839 1860-3134 2404-1302 544-2830 819-4594 819-1949 0-3671-324-5158-971-1494-648-2610-1488-3347-2521-744-1040-1178-2135-1315-3285-131-1150-200-3574-200-7259v-19353h8513v24518c0 1426 76 2342 228 2734 151 399 461 599 923 599 523 0 868-220 1019-654 151-441 227-1474 227-3099v-24098h8513zm3299 0h8458c2672 0 4697 206 6074 627 1378 413 2486 1260 3333 2528 847 1274 1267 3319 1267 6143 0 1907-296 3237-895 3987-599 758-1784 1329-3547 1736 1970 448 3306 1184 4008 2211 702 1033 1054 2610 1054 4745v3030c0 2211-255 3843-757 4911-503 1061-1302 1791-2404 2183-1102 393-3361 585-6777 585h-9815v-32686zm8513 5578v7273c358-14 634-20 833-20 813 0 1336-207 1556-613 228-413 337-1591 337-3526 0-1026-89-1743-275-2156-186-406-427-668-723-778-296-103-875-165-1729-179zm0 12356v9174c1171-41 1922-227 2245-565 324-337 482-1171 482-2493v-3058c0-1405-144-2252-434-2555-289-296-1054-461-2293-503zm32280-8017h-7893v-2417c0-1130-104-1853-303-2163-200-310-530-461-999-461-509 0-895 207-1157 627-261 413-393 1040-393 1887 0 1088 152 1908 448 2459 289 544 1088 1212 2404 1997 3767 2252 6143 4105 7121 5544 985 1439 1474 3761 1474 6956 0 2328-275 4043-819 5152-544 1102-1591 2025-3154 2769-1557 751-3368 1122-5441 1122-2273 0-4208-434-5820-1294-1605-861-2652-1956-3154-3285-496-1336-744-3230-744-5675v-2142h7893v3974c0 1226 110 2011 331 2362 220 351 613 524 1178 524s985-220 1260-668c276-441 413-1102 413-1970 0-1922-262-3182-785-3767-544-593-1867-1584-3974-2975-2107-1398-3498-2417-4187-3051-682-633-1254-1508-1701-2624-448-1116-675-2541-675-4277 0-2500 317-4332 957-5489s1667-2059 3092-2714c1426-654 3141-978 5159-978 2204 0 4077 358 5633 1068 1550 716 2576 1611 3079 2700 503 1081 757 2920 757 5517v1295zm23230 4339h-8513v-5675c0-1653-89-2679-269-3092-179-406-578-613-1191-613-689 0-1130 248-1315 744-186 503-283 1577-283 3230v15165c0 1591 96 2624 283 3113 186 482 606 723 1253 723 627 0 1040-241 1233-730 193-482 289-1625 289-3423v-4111h8513v1274c0 3389-241 5792-716 7204-475 1419-1536 2658-3168 3726-1639 1067-3650 1598-6047 1598-2486 0-4539-448-6157-1350-1612-902-2686-2149-3209-3747-524-1598-785-3994-785-7197v-9546c0-2356 83-4119 241-5296 165-1178 641-2314 1446-3402 799-1088 1908-1949 3327-2576s3051-937 4897-937c2500 0 4566 482 6198 1453 1625 964 2693 2170 3209 3616 510 1446 765 3692 765 6743v3106zm3044-14256h6013c4008 0 6722 151 8141 461s2576 1102 3471 2376c895 1267 1343 3299 1343 6081 0 2541-317 4249-950 5124-627 874-1873 1398-3733 1570 1680 420 2817 978 3395 1680 578 696 937 1343 1074 1929 144 585 213 2197 213 4835v8630h-7893v-10875c0-1749-138-2831-413-3251-269-420-985-627-2149-627v14752h-8513v-32686zm8513 5578v7273c950 0 1612-131 1991-393s572-1116 572-2555v-1798c0-1040-186-1722-551-2045-365-324-1040-482-2011-482zm22252-5578v32686h-8513v-32686h8513zm3395 0h8457c2672 0 4697 206 6074 627 1378 413 2486 1260 3333 2528 847 1274 1267 3319 1267 6143 0 1907-296 3237-895 3987-599 758-1784 1329-3547 1736 1970 448 3306 1184 4008 2211 702 1033 1054 2610 1054 4745v3030c0 2211-255 3843-757 4911-503 1061-1302 1791-2404 2183-1102 393-3361 585-6777 585h-9814v-32686zm8513 5578v7273c358-14 634-20 833-20 813 0 1336-207 1556-613 228-413 337-1591 337-3526 0-1026-89-1743-275-2156-186-406-427-668-723-778-296-103-875-165-1729-179zm0 12356v9174c1171-41 1922-227 2245-565 324-337 482-1171 482-2493v-3058c0-1405-144-2252-434-2555-289-296-1054-461-2293-503zm14304-17934h14174v6529h-5661v6240h5289v6198h-5289v7190h6240v6529h-14752v-32686zm-187969 2152s-694-4900-2830-7051c-2706-2830-5737-2848-7122-3012-9939-724-24868-724-24868-724h-26s-14922 0-24866 724c-1391 169-4417 180-7122 3012-2137 2151-2817 7051-2817 7051s-707 5749-707 11511v5387c0 5750 707 11511 707 11511s694 4899 2816 7055c2706 2829 6261 2737 7847 3039 5691 543 24173 707 24173 707s14941-26 24880-737c1391-165 4416-181 7122-3012 2137-2151 2830-7056 2830-7056s707-5750 707-11511v-5387c-14-5750-722-11511-722-11511l-4 4zm-42182 23435v-19977l19202 10022-19202 9956z" fill="#c00"/></svg>